<svg width="7" height="14" viewBox="0 0 7 14" fill="none" xmlns="http://www.w3.org/2000/svg">
<path d="M1.16105 6.05918e-05C1.31044 -0.00044773 1.45805 0.0325246 1.59303 0.0965533C1.72801 0.160582 1.84693 0.254041 1.94105 0.370061L6.77105 6.37006C6.91813 6.54899 6.99853 6.77344 6.99853 7.00506C6.99853 7.23669 6.91813 7.46113 6.77105 7.64006L1.77105 13.6401C1.60131 13.8443 1.3574 13.9727 1.09297 13.9971C0.828545 14.0215 0.565264 13.9398 0.361047 13.7701C0.156831 13.6003 0.0284066 13.3564 0.00402681 13.092C-0.0203529 12.8276 0.0613083 12.5643 0.231047 12.3601L4.70105 7.00006L0.381047 1.64006C0.258764 1.49328 0.181086 1.31453 0.157207 1.12499C0.133327 0.935438 0.164244 0.743013 0.2463 0.570486C0.328356 0.397958 0.458116 0.252547 0.620226 0.151456C0.782336 0.050366 0.970012 -0.00217099 1.16105 6.05918e-05Z" fill="white" fill-opacity="0.64"/>
</svg>
