<svg width="54" height="41" viewBox="0 0 54 41" fill="none" xmlns="http://www.w3.org/2000/svg">
<path fill-rule="evenodd" clip-rule="evenodd" d="M38.1389 7.84337C38.2153 8.29401 38.2834 8.68182 38.3205 8.88659C38.5491 10.132 38.7415 13.2943 39.6231 15.445C40.2952 17.086 41.3694 18.1448 43.003 17.7635C44.4878 17.4169 45.4121 15.9366 45.8569 13.8901C46.8142 9.48559 45.6598 2.44923 44.7621 0.413578C44.664 0.1914 44.4053 0.0906916 44.1831 0.188813C43.9619 0.286433 43.8612 0.545155 43.9593 0.767333C44.8203 2.72103 45.9182 9.47549 44.9993 13.7039C44.6399 15.3566 44.0025 16.6288 42.8029 16.9086C41.6192 17.1853 40.9227 16.3022 40.4355 15.1125C39.577 13.0196 39.406 9.94085 39.1841 8.72805C39.0446 7.96782 38.5944 5.05344 38.4957 4.81295C38.3722 4.51171 38.1167 4.51993 38.0331 4.52894C37.9683 4.53582 37.6473 4.59105 37.6327 4.98983C37.4217 10.6758 33.1624 19.2549 26.8974 24.9979C20.6876 30.6904 12.4773 33.5938 4.25196 27.9469C4.05191 27.8101 3.77841 27.861 3.64113 28.0601C3.50435 28.2601 3.55528 28.5336 3.75532 28.6704C12.3737 34.587 20.9847 31.609 27.4903 25.6455C32.9734 20.6196 36.939 13.4708 38.1389 7.84337Z" fill="#0D121F"/>
<path fill-rule="evenodd" clip-rule="evenodd" d="M4.47038 28.5442C5.50188 28.4592 6.53164 28.4075 7.55714 28.2424C10.2893 27.8028 13.0352 26.7675 15.2512 25.0935C15.4448 24.9465 15.4825 24.6714 15.337 24.4782C15.1901 24.2846 14.9149 24.2469 14.7218 24.3924C12.6197 25.9824 10.0101 26.9584 7.4179 27.3752C6.24399 27.5636 5.06308 27.6016 3.88171 27.7143C3.82282 27.7206 3.30798 27.7539 3.20126 27.7908C2.95225 27.8753 2.90306 28.0693 2.89182 28.162C2.88146 28.2393 2.88758 28.3343 2.93784 28.4405C2.97955 28.5273 3.09745 28.6736 3.29668 28.8356C3.93323 29.3567 5.59236 30.3589 5.84728 30.5522C8.76982 32.7679 11.1168 35.3199 13.6549 37.9449C13.824 38.1185 14.1024 38.1235 14.2765 37.9554C14.4507 37.7873 14.4547 37.5094 14.2866 37.3353C11.7165 34.6768 9.3362 32.0959 6.37781 29.8537C6.20305 29.7202 5.19438 29.0344 4.47038 28.5442Z" fill="#0D121F"/>
</svg>
