<svg width="72" height="72" viewBox="0 0 72 72" fill="none" xmlns="http://www.w3.org/2000/svg">
<path d="M30.1906 12.99C30.691 13.5581 30.6742 13.8484 30.6749 14.599C30.6753 14.7486 30.6753 14.7486 30.6758 14.9013C30.6766 15.2372 30.6765 15.5731 30.6764 15.9091C30.6768 16.1493 30.6773 16.3895 30.6779 16.6297C30.679 17.1481 30.6797 17.6664 30.6802 18.1847C30.681 19.005 30.6833 19.8254 30.686 20.6457C30.6869 20.9265 30.6877 21.2073 30.6886 21.4881C30.6891 21.6288 30.6895 21.7694 30.69 21.9143C30.6959 23.8245 30.7005 25.7347 30.7023 27.6449C30.7034 28.9327 30.7066 30.2204 30.712 31.5082C30.7148 32.1895 30.7165 32.8708 30.7158 33.5521C30.7152 34.1939 30.7171 34.8356 30.721 35.4774C30.722 35.7122 30.722 35.947 30.721 36.1818C30.7154 37.6307 30.8362 38.7837 31.5969 40.0515C32.5259 40.9304 33.4911 41.2198 34.742 41.2223C34.8919 41.2229 34.8919 41.2229 35.0448 41.2235C35.3795 41.2247 35.7143 41.2249 36.049 41.2251C36.289 41.2257 36.5291 41.2265 36.7691 41.2272C37.2859 41.2288 37.8028 41.23 38.3197 41.2309C39.1369 41.2324 39.9541 41.2353 40.7713 41.2384C43.095 41.2471 45.4188 41.2547 47.7426 41.2593C49.026 41.2619 50.3094 41.266 51.5928 41.2717C52.2719 41.2747 52.9511 41.2769 53.6303 41.2772C54.2689 41.2775 54.9075 41.2797 55.5462 41.2834C55.7806 41.2844 56.015 41.2847 56.2494 41.2843C56.5694 41.2837 56.8893 41.2857 57.2092 41.2884C57.4778 41.2891 57.4778 41.2891 57.7519 41.2898C58.378 41.3618 58.7436 41.5772 59.1731 42.0302C59.9112 43.3165 59.1137 45.7535 58.7814 47.1092C57.6762 51.1431 55.9014 54.8999 53.1564 58.0779C53.0622 58.1876 52.9679 58.2972 52.8708 58.4102C48.0621 63.8723 41.3802 67.5728 34.0314 68.0623C27.015 68.3999 20.1945 66.7135 14.6252 62.2967C14.5479 62.2356 14.4706 62.1746 14.391 62.1117C10.9685 59.3814 8.29076 56.0137 6.46893 52.031C6.42164 51.9292 6.37435 51.8275 6.32563 51.7226C4.70519 48.2001 3.9074 44.4265 3.91935 40.554C3.92011 40.2615 3.91935 39.9691 3.91846 39.6766C3.91855 39.4876 3.91873 39.2985 3.91901 39.1095C3.91916 38.9409 3.91932 38.7724 3.91949 38.5988C3.93807 38.0988 3.99886 37.6185 4.07831 37.1248C4.64414 37.5411 5.06409 38.0097 5.48456 38.5662C5.6206 38.7428 5.75684 38.9193 5.89325 39.0957C5.96413 39.1875 6.03501 39.2794 6.10803 39.374C6.4789 39.8489 6.86085 40.3147 7.24237 40.781C7.87635 41.5577 8.50074 42.3408 9.11774 43.131C9.68535 43.8561 10.2657 44.5705 10.8492 45.2828C11.227 45.7452 11.5995 46.2102 11.9615 46.6851C12.0641 46.8189 12.0641 46.8189 12.1686 46.9553C12.2959 47.1222 12.4222 47.2899 12.5471 47.4585C13.0418 48.1057 13.5678 48.5379 14.3439 48.7967C15.2597 48.9068 15.9852 48.7842 16.7346 48.2342C17.5846 47.435 18.271 46.4546 18.9862 45.5354C19.4233 44.9755 19.8712 44.4248 20.3205 43.8748C20.9513 43.102 21.5721 42.3226 22.185 41.5356C22.7086 40.8666 23.2494 40.2128 23.7922 39.5594C25.5802 37.5543 25.5802 37.5543 26.0158 35.0154C25.6988 34.1312 25.161 33.6036 24.3283 33.1873C23.3538 33.0945 22.3792 33.0017 21.3752 32.906C21.3752 26.8268 21.3752 20.7476 21.3752 14.4842C22.4965 14.0169 23.5174 13.6219 24.6799 13.3328C24.8916 13.2792 24.8916 13.2792 25.1077 13.2245C29.2155 12.2011 29.2155 12.2011 30.1906 12.99Z" fill="white"/>
<path d="M52.119 7.69916C53.5374 8.44103 54.8424 9.28906 56.1092 10.2656C56.2499 10.3738 56.3906 10.482 56.5355 10.5935C62.8511 15.6297 66.9658 22.8216 68.0074 30.8572C68.1763 32.4011 68.1763 32.4011 67.8163 33.1083C67.3721 33.6142 67.1244 33.7363 66.4466 33.7857C66.2461 33.7875 66.0456 33.7876 65.845 33.7866C65.7343 33.7871 65.6236 33.7877 65.5095 33.7882C65.1382 33.7897 64.7668 33.7891 64.3955 33.7886C64.1294 33.7892 63.8633 33.7899 63.5972 33.7907C62.874 33.7926 62.1508 33.7927 61.4276 33.7923C60.8241 33.7922 60.2206 33.7929 59.617 33.7936C58.1932 33.7951 56.7694 33.7952 55.3456 33.7943C53.8764 33.7935 52.4073 33.7952 50.9381 33.7982C49.6771 33.8007 48.416 33.8015 47.155 33.8011C46.4017 33.8008 45.6484 33.8012 44.8951 33.8031C44.1866 33.8049 43.4782 33.8046 42.7697 33.8028C42.5097 33.8025 42.2497 33.8029 41.9898 33.804C41.6347 33.8055 41.2798 33.8043 40.9248 33.8026C40.822 33.8036 40.7193 33.8046 40.6134 33.8057C39.9568 33.7988 39.5011 33.6932 38.953 33.3281C38.4789 32.7666 38.4708 32.2161 38.4766 31.5104C38.4758 31.399 38.4751 31.2875 38.4743 31.1728C38.4723 30.7999 38.4733 30.4271 38.4743 30.0542C38.4735 29.7867 38.4725 29.5191 38.4714 29.2516C38.4688 28.5253 38.469 27.7989 38.4698 27.0726C38.4703 26.4662 38.4694 25.8599 38.4685 25.2535C38.4666 23.8232 38.4668 22.3928 38.4684 20.9624C38.47 19.4866 38.468 18.0109 38.4643 16.5351C38.4611 15.2681 38.4602 14.0011 38.461 12.734C38.4615 11.9773 38.4612 11.2205 38.4587 10.4638C38.4566 9.75218 38.4571 9.04063 38.4598 8.32902C38.4603 8.06792 38.4599 7.80681 38.4584 7.5457C38.4565 7.18912 38.4581 6.8327 38.4606 6.47612C38.4593 6.37291 38.4579 6.2697 38.4565 6.16336C38.4667 5.45217 38.6487 5.04914 39.0936 4.49994C42.0109 2.47957 49.3864 6.30384 52.119 7.69916ZM42.161 15.0292C41.6794 15.8596 41.4734 16.6125 41.6853 17.5698C41.9956 18.5485 42.6148 19.2856 43.4794 19.8281C44.5392 20.1061 45.4859 20.1549 46.4676 19.6171C47.2409 19.0937 47.6609 18.4545 47.953 17.5781C48.0627 16.5821 47.9396 15.7543 47.3905 14.9062C46.7023 14.0896 45.8277 13.7436 44.7889 13.5878C43.6828 13.7537 42.8486 14.1256 42.161 15.0292ZM50.0019 17.4742C49.8382 17.6375 49.6745 17.8008 49.5107 17.9641C49.1703 18.3036 48.8303 18.6434 48.4904 18.9834C48.0561 19.4177 47.6209 19.851 47.1854 20.284C46.8481 20.6198 46.5114 20.9562 46.1749 21.2927C46.0147 21.4528 45.8542 21.6126 45.6935 21.7722C45.4692 21.9952 45.2457 22.2191 45.0225 22.4432C44.8955 22.5699 44.7686 22.6966 44.6379 22.8272C43.9517 23.5832 43.4739 24.3218 43.4431 25.3668C43.4949 26.3607 43.8142 27.0647 44.506 27.7783C45.2086 28.401 45.9007 28.6246 46.828 28.6874C48.0519 28.538 48.846 27.8368 49.6862 26.9929C49.7707 26.9091 49.8552 26.8253 49.9422 26.739C50.2194 26.4638 50.4955 26.1876 50.7715 25.9112C50.9648 25.7185 51.158 25.5259 51.3513 25.3332C51.7554 24.9302 52.159 24.5265 52.5623 24.1226C53.0784 23.6056 53.5961 23.0903 54.1142 22.5754C54.5134 22.1783 54.9117 21.7802 55.3096 21.3818C55.5001 21.1914 55.6909 21.0013 55.882 20.8116C56.1492 20.5461 56.4151 20.2793 56.6806 20.0122C56.7593 19.9345 56.838 19.8569 56.9191 19.777C57.6626 19.0234 58.078 18.2405 58.078 17.1562C57.9605 16.1793 57.5521 15.4981 56.8475 14.8095C54.0084 12.7894 51.9215 15.5559 50.0019 17.4742ZM54.4217 23.7656C53.9365 24.5795 53.8838 25.3723 53.9999 26.2968C54.2612 27.2384 54.9036 27.8557 55.6874 28.4062C56.5163 28.8034 57.3749 28.8097 58.2362 28.5204C59.1142 28.1486 59.6936 27.6096 60.0808 26.7423C60.3944 25.8451 60.3933 25.0838 60.0462 24.1968C59.6171 23.3066 59.0471 22.8937 58.1648 22.4879C56.6827 21.9702 55.3531 22.5829 54.4217 23.7656Z" fill="white"/>
<path d="M10.9686 3.93734C11.3048 3.88471 11.3048 3.88471 11.7319 3.88498C11.8914 3.8841 12.051 3.88323 12.2154 3.88232C12.3884 3.88362 12.5614 3.88491 12.7396 3.88625C12.9164 3.88618 13.0933 3.88611 13.2755 3.88604C13.6501 3.88637 14.0245 3.88752 14.399 3.89006C14.8795 3.89325 15.3599 3.89333 15.8404 3.89238C16.298 3.8918 16.7556 3.89348 17.2132 3.89504C17.4727 3.89485 17.4727 3.89485 17.7375 3.89465C17.9768 3.89666 17.9768 3.89666 18.2209 3.89871C18.3619 3.89936 18.5028 3.90001 18.648 3.90067C18.9842 3.93734 18.9842 3.93734 19.2655 4.21859C19.2932 4.60249 19.3031 4.97216 19.3008 5.35623C19.3013 5.47522 19.3017 5.59421 19.3021 5.7168C19.3032 6.11786 19.3023 6.51889 19.3014 6.91995C19.3018 7.20657 19.3023 7.49319 19.3029 7.77981C19.3041 8.39828 19.3044 9.01674 19.3041 9.63521C19.3037 10.6131 19.3057 11.5911 19.3081 12.569C19.3148 15.3503 19.3181 18.1315 19.319 20.9128C19.3196 22.448 19.3221 23.9831 19.3268 25.5182C19.3296 26.4903 19.33 27.4623 19.3284 28.4344C19.3281 29.0397 19.33 29.6449 19.3327 30.2501C19.3334 30.5307 19.3332 30.8112 19.3319 31.0918C19.3304 31.4751 19.3323 31.8583 19.335 32.2417C19.3337 32.3524 19.3324 32.4632 19.3311 32.5773C19.3419 33.356 19.5281 33.8085 19.9686 34.453C20.5832 35.0041 21.3021 34.9421 22.0868 34.9539C22.3375 34.9588 22.5881 34.9648 22.8388 34.9721C23.0044 34.9747 23.0044 34.9747 23.1733 34.9773C23.5164 35.0194 23.7485 35.126 24.0467 35.2967C24.1104 35.8523 24.0845 36.0855 23.7627 36.5535C23.6337 36.6988 23.5026 36.8423 23.37 36.9842C23.2261 37.1458 23.0825 37.3077 22.9393 37.4698C22.8657 37.5524 22.7921 37.6349 22.7163 37.72C22.3792 38.1071 22.0662 38.5116 21.7528 38.9178C21.1708 39.667 20.5738 40.4022 19.9686 41.1326C19.3068 41.9318 18.6566 42.7381 18.0186 43.5564C17.5008 44.2191 16.9742 44.8742 16.4442 45.5272C16.3259 45.6732 16.3259 45.6732 16.2052 45.8222C16.1316 45.9126 16.058 46.0031 15.9822 46.0963C15.8843 46.2167 15.8843 46.2167 15.7844 46.3395C15.3776 46.8207 15.3776 46.8207 14.9907 46.8774C14.5196 46.8137 14.4149 46.6814 14.1151 46.3182C13.9696 46.1439 13.9696 46.1439 13.8212 45.9661C13.3356 45.356 12.852 44.7446 12.3732 44.1292C11.9361 43.5693 11.4882 43.0186 11.0389 42.4686C10.4084 41.6962 9.78804 40.9171 9.17529 40.1307C8.56276 39.3482 7.9295 38.5831 7.29233 37.8206C5.89826 36.1436 5.89826 36.1436 5.93247 35.5164C5.97017 35.3975 6.00788 35.2786 6.04672 35.1561C6.43927 35.0252 6.6889 34.9965 7.09537 34.9907C7.21709 34.9874 7.33882 34.984 7.46423 34.9806C7.71872 34.9746 7.97324 34.9702 8.22778 34.9674C9.01686 34.9422 9.51178 34.8578 10.1248 34.3123C10.5925 33.7083 10.6067 33.1534 10.6009 32.4171C10.6016 32.2973 10.6024 32.1776 10.6031 32.0542C10.6051 31.6531 10.6041 31.2521 10.6031 30.851C10.6039 30.5634 10.6049 30.2758 10.606 29.9882C10.6082 29.3691 10.609 28.7499 10.6088 28.1308C10.6085 27.1524 10.6112 26.174 10.6144 25.1956C10.6202 23.296 10.6228 21.3964 10.6251 19.4967C10.6283 17.0777 10.633 14.6586 10.6402 12.2395C10.643 11.2662 10.6444 10.293 10.6446 9.31967C10.6449 8.71521 10.6465 8.11076 10.6483 7.50631C10.6489 7.22529 10.649 6.94428 10.6486 6.66327C10.6481 6.28071 10.6494 5.8982 10.651 5.51565C10.6505 5.40355 10.6499 5.29145 10.6493 5.17595C10.6535 4.64066 10.6643 4.3938 10.9686 3.93734Z" fill="white"/>
<path d="M55.4062 16.3124C55.7283 16.5345 55.8128 16.6937 55.9512 17.0595C55.9826 17.7351 55.6279 18.1872 55.1985 18.685C55.0596 18.8272 54.9197 18.9682 54.7788 19.1083C54.7021 19.1861 54.6255 19.264 54.5465 19.3442C54.2944 19.5996 54.0407 19.8534 53.7869 20.1071C53.6101 20.2849 53.4333 20.4627 53.2566 20.6406C52.8866 21.0124 52.5158 21.3835 52.1445 21.754C51.6695 22.2281 51.1972 22.7047 50.7256 23.1821C50.3615 23.5498 49.9958 23.9159 49.6296 24.2815C49.4548 24.4566 49.2806 24.6322 49.1069 24.8084C48.8636 25.0548 48.6182 25.2988 48.3721 25.5424C48.266 25.6513 48.266 25.6513 48.1577 25.7625C47.6608 26.2479 47.2294 26.456 46.5469 26.578C46.0393 26.3637 45.8704 26.196 45.5625 25.7343C45.5684 25.0054 45.7423 24.6139 46.2514 24.0935C46.3291 24.0184 46.4068 23.9432 46.4869 23.8658C46.5686 23.7836 46.6502 23.7014 46.7343 23.6167C47.0035 23.3467 47.2755 23.0799 47.5477 22.813C47.7359 22.6257 47.9238 22.4383 48.1116 22.2507C48.505 21.8587 48.8996 21.468 49.2954 21.0785C49.8032 20.5787 50.3085 20.0764 50.8129 19.5733C51.2008 19.1866 51.5894 18.8008 51.9783 18.4152C52.1649 18.2302 52.3514 18.045 52.5377 17.8598C52.7979 17.6015 53.059 17.3442 53.3204 17.0873C53.3976 17.0104 53.4747 16.9336 53.5542 16.8544C54.1858 16.237 54.5414 16.0962 55.4062 16.3124Z" fill="white"/>
<path d="M8.4375 25.0312C8.48391 25.0312 8.53031 25.0312 8.57812 25.0312C8.57812 27.63 8.57812 30.2287 8.57812 32.9062C7.88203 32.9527 7.18594 32.9991 6.46875 33.0469C5.95222 33.198 5.95222 33.198 5.44702 33.3814C5.20312 33.4688 5.20312 33.4688 4.78125 33.4688C4.94857 32.4804 5.20809 31.5717 5.57227 30.6387C5.62165 30.5109 5.67104 30.3831 5.72192 30.2514C7.35042 26.1183 7.35042 26.1183 8.4375 25.0312Z" fill="white"/>
<path d="M57.5158 24.4689C57.841 24.6271 57.841 24.6271 58.0783 24.8908C58.2461 25.4053 58.2649 25.6361 58.0344 26.13C57.7971 26.4377 57.7971 26.4377 57.5158 26.5783C57.0177 26.6324 56.7617 26.6373 56.3381 26.3586C56.0219 25.8843 56.0297 25.5904 56.1096 25.0314C56.4965 24.451 56.8377 24.37 57.5158 24.4689Z" fill="white"/>
<path d="M45.422 15.8908C45.6857 16.049 45.6857 16.049 45.8439 16.3126C45.9136 16.8604 45.9255 17.1697 45.6242 17.6398C45.1454 17.9467 44.8547 17.9491 44.297 17.8595C43.9455 17.5695 43.9455 17.5695 43.7345 17.1564C43.7258 16.6466 43.7258 16.6466 43.8752 16.172C44.3886 15.7026 44.7692 15.6921 45.422 15.8908Z" fill="white"/>
</svg>
