<svg width="72" height="72" viewBox="0 0 72 72" fill="none" xmlns="http://www.w3.org/2000/svg">
<g clip-path="url(#clip0_324_3616)">
<path d="M47.5314 39.6561C47.6499 39.7549 47.7685 39.8537 47.8906 39.9555C50.9968 42.6276 52.8463 46.3649 53.5782 50.3436C53.603 50.4764 53.6277 50.6091 53.6531 50.7459C54.011 53.1498 53.824 55.7457 53.1564 58.078C53.1123 58.2321 53.1123 58.2321 53.0673 58.3894C52.3685 60.7349 51.2199 62.8243 49.6407 64.6874C49.581 64.7589 49.5212 64.8304 49.4596 64.9041C46.4857 68.4341 42.1474 70.5807 37.5669 70.9928C34.8538 71.197 32.2262 70.8168 29.672 69.8905C29.5268 69.8386 29.3816 69.7868 29.232 69.7334C27.4775 69.0559 25.8856 68.0254 24.4689 66.7967C24.3538 66.7003 24.2386 66.6039 24.12 66.5045C21.375 64.1383 19.6247 60.9868 18.7032 57.5155C18.6581 57.3509 18.613 57.1863 18.5665 57.0167C17.5452 52.5896 18.4395 47.7226 20.8126 43.8749C22.0011 42.0179 23.4113 40.4307 25.172 39.0936C25.3335 38.9685 25.3335 38.9685 25.4983 38.8409C32.0641 33.9889 41.3393 34.4511 47.5314 39.6561ZM34.1984 41.493C33.8761 42.0187 33.8755 42.4553 33.8819 43.0575C33.8832 43.2103 33.8845 43.3631 33.8858 43.5206C33.8874 43.6375 33.8891 43.7544 33.8907 43.8749C33.7938 43.8801 33.6968 43.8854 33.5968 43.8908C31.8228 44.0149 30.5395 44.5417 29.2655 45.8315C28.2784 47.0429 28.0053 48.4169 28.0702 49.9476C28.2174 51.386 29.0237 52.7822 30.1367 53.7065C32.1436 55.0425 34.3906 54.9063 36.7068 54.9155C37.0915 54.9177 37.476 54.9223 37.8606 54.9271C37.9784 54.9267 38.0962 54.9263 38.2175 54.9258C39.0311 54.9364 39.0311 54.9364 39.3356 55.1683C39.6351 55.5637 39.566 55.9132 39.5157 56.3905C39.3552 56.6985 39.3552 56.6985 39.0939 56.953C38.7081 57.0241 38.7081 57.0241 38.2354 57.0253C37.9699 57.0281 37.9699 57.0281 37.6991 57.0309C37.5056 57.0302 37.312 57.0295 37.1185 57.0288C36.9197 57.0302 36.7209 57.0319 36.5221 57.0338C35.9981 57.0384 35.4742 57.0398 34.9502 57.0404C34.1136 57.0416 33.277 57.0467 32.4405 57.0534C32.1492 57.0551 31.858 57.055 31.5668 57.0547C31.2986 57.0562 31.2986 57.0562 31.0251 57.0577C30.8687 57.0579 30.7122 57.0581 30.5511 57.0582C29.9046 57.1083 29.3171 57.2097 28.803 57.6188C28.1521 58.3792 28.1521 58.3792 27.9845 59.3436C28.1211 60.1224 28.3512 60.537 28.9689 61.0311C29.926 61.5933 30.8995 61.5007 31.9835 61.4794C32.1669 61.4775 32.3502 61.4755 32.5391 61.4736C32.9897 61.4686 33.4402 61.4617 33.8907 61.453C33.8878 61.538 33.8848 61.6231 33.8818 61.7107C33.87 62.0994 33.8628 62.488 33.8556 62.8768C33.8509 63.0106 33.8462 63.1444 33.8413 63.2822C33.8264 64.3527 34.0251 64.7973 34.7609 65.5751C35.3061 65.9022 35.7895 65.9799 36.422 65.953C37.1652 65.71 37.5156 65.2961 37.9689 64.6874C38.1413 64.3424 38.1255 64.1178 38.1232 63.7327C38.1228 63.6003 38.1223 63.468 38.1218 63.3316C38.1207 63.1932 38.1195 63.0547 38.1183 62.912C38.1176 62.7724 38.117 62.6328 38.1163 62.489C38.1147 62.1437 38.1124 61.7983 38.1095 61.453C38.2616 61.4477 38.2616 61.4477 38.4168 61.4423C40.0046 61.3732 41.4897 60.7704 42.6095 59.6249C43.7762 58.1095 43.9894 56.6997 43.8751 54.8436C43.693 53.6191 42.8994 52.529 41.9816 51.729C40.5062 50.6514 39.1019 50.47 37.3157 50.4546C37.0585 50.4506 36.8014 50.4466 36.5442 50.4425C36.1427 50.4367 35.7412 50.4315 35.3397 50.4278C34.9495 50.4239 34.5594 50.4175 34.1692 50.4106C34.0488 50.4102 33.9284 50.4097 33.8044 50.4092C32.9654 50.3918 32.9654 50.3918 32.664 50.146C32.4404 49.8666 32.4277 49.7137 32.4317 49.3592C32.4307 49.2635 32.4296 49.1678 32.4285 49.0692C32.5034 48.705 32.6103 48.5995 32.9064 48.3749C33.2849 48.3216 33.2849 48.3216 33.7474 48.3208C33.9207 48.3193 34.0939 48.3179 34.2724 48.3164C34.365 48.3167 34.4576 48.3169 34.553 48.3171C34.8441 48.3177 35.135 48.3158 35.426 48.3131C36.0451 48.3079 36.6642 48.306 37.2833 48.3045C37.9982 48.3028 38.713 48.2998 39.4279 48.2933C39.7128 48.2914 39.9975 48.292 40.2824 48.2927C41.4732 48.283 42.5118 48.2453 43.4532 47.4608C43.9799 46.8025 43.9623 46.0911 43.8751 45.2811C43.5824 44.6224 43.2054 44.3019 42.5581 43.9896C41.7576 43.7417 40.9074 43.8186 40.0782 43.8397C39.8869 43.8425 39.6955 43.8451 39.5042 43.8474C39.0392 43.854 38.5744 43.8632 38.1095 43.8749C38.1114 43.7588 38.1134 43.6426 38.1154 43.523C38.1176 43.2948 38.1176 43.2948 38.1199 43.0619C38.1219 42.911 38.1238 42.7601 38.1258 42.6046C38.1053 42.0809 37.9952 41.7679 37.6876 41.3436C36.9948 40.7184 36.5694 40.5911 35.6546 40.6004C35.0014 40.6736 34.619 41.0144 34.1984 41.493Z" fill="white"/>
<path d="M35.8594 1.26562C36.4481 1.46188 36.6369 1.88107 36.9597 2.38074C37.0251 2.47987 37.0905 2.57901 37.1578 2.68115C37.3677 2.99963 37.576 3.31909 37.7842 3.63867C38.0567 4.05467 38.3298 4.47025 38.6032 4.88562C38.703 5.0375 38.703 5.0375 38.8049 5.19245C39.2682 5.89428 39.7521 6.57764 40.2519 7.25407C40.6426 7.78909 41.006 8.34121 41.3701 8.89453C42.2004 10.1478 43.0399 11.3945 43.8838 12.6387C43.9458 12.7301 44.0077 12.8215 44.0716 12.9156C44.456 13.4827 44.8406 14.0496 45.2253 14.6165C45.7525 15.3935 46.2795 16.1708 46.8063 16.9481C46.9879 17.216 47.1697 17.4838 47.3514 17.7516C47.6343 18.1688 47.9165 18.5864 48.1983 19.0042C48.3224 19.1878 48.4468 19.3712 48.5715 19.5545C48.7697 19.846 48.9671 20.138 49.1644 20.4302C49.2261 20.5206 49.2879 20.6109 49.3515 20.7041C49.7812 21.343 49.7812 21.343 49.7812 21.6562C49.6494 21.6576 49.5175 21.6589 49.3816 21.6602C48.8893 21.6664 48.3972 21.6751 47.905 21.6854C47.6925 21.6894 47.48 21.6924 47.2675 21.6944C46.9609 21.6974 46.6546 21.704 46.348 21.7112C46.1639 21.7141 45.9798 21.7171 45.7901 21.7201C45.1941 21.81 44.8974 21.9739 44.4375 22.3594C43.5836 23.5296 44.0294 25.2513 44.231 26.5984C44.2637 26.8293 44.2637 26.8293 44.2972 27.0649C44.3662 27.5503 44.4369 28.0354 44.5078 28.5205C44.5786 29.0081 44.649 29.4958 44.7185 29.9836C44.7615 30.2854 44.8053 30.587 44.8499 30.8885C44.961 31.6642 45.0228 32.4039 45 33.1875C44.9081 33.1556 44.8161 33.1238 44.7214 33.0909C42.2292 32.2145 42.2292 32.2145 39.6562 31.6406C39.5664 31.6266 39.4766 31.6125 39.384 31.598C35.1025 30.9511 31.022 31.6536 27 33.1875C26.9728 32.254 27.0786 31.3706 27.2153 30.4481C27.2602 30.1332 27.3051 29.8184 27.3499 29.5035C27.4208 29.0126 27.492 28.5217 27.5638 28.0309C27.6333 27.5536 27.7013 27.076 27.769 26.5984C27.8013 26.3826 27.8013 26.3826 27.8343 26.1624C28.1261 24.3207 28.1261 24.3207 27.7471 22.5527C27.0951 21.8832 26.5956 21.7434 25.6657 21.7249C25.5668 21.7224 25.4679 21.7199 25.3661 21.7173C25.0523 21.7097 24.7386 21.7049 24.4248 21.7002C24.2112 21.6955 23.9976 21.6907 23.784 21.6856C23.2623 21.6737 22.7406 21.6643 22.2188 21.6562C22.4341 21.0362 22.7655 20.5215 23.1334 19.9836C23.2268 19.8452 23.2268 19.8452 23.3222 19.7041C23.4523 19.5116 23.5827 19.3193 23.7134 19.1272C23.8946 18.8609 24.0749 18.5942 24.255 18.3272C24.6037 17.8103 24.9537 17.2943 25.3037 16.7783C25.4326 16.5882 25.5615 16.398 25.6904 16.2079C26.08 15.6333 26.4696 15.0588 26.8594 14.4844C26.9178 14.3982 26.9763 14.3121 27.0365 14.2233C27.5321 13.4929 28.0278 12.7625 28.5235 12.0321C29.29 10.9029 30.0556 9.77308 30.821 8.64305C31.1906 8.09729 31.5603 7.55158 31.93 7.00586C32.2412 6.54652 32.5523 6.08716 32.8634 5.62775C33.1709 5.1736 33.4786 4.71955 33.7863 4.26554C33.901 4.09623 34.0157 3.92688 34.1304 3.7575C34.6974 2.91988 35.2661 2.08489 35.8594 1.26562Z" fill="white"/>
<path d="M17.4375 4.5C17.5303 4.5 17.6231 4.5 17.7188 4.5C17.9797 4.84071 18.2243 5.18292 18.4658 5.53711C18.6193 5.75839 18.7729 5.97958 18.9267 6.20068C19.0061 6.31525 19.0854 6.42981 19.1672 6.54785C19.5399 7.08233 19.9209 7.6107 20.3027 8.13867C20.4138 8.29327 20.4138 8.29327 20.5271 8.45099C20.9405 9.0244 21.3616 9.59042 21.7925 10.1508C21.8841 10.2713 21.9758 10.3918 22.0702 10.5159C22.2478 10.7489 22.4272 10.9805 22.6084 11.2107C22.6883 11.3159 22.7682 11.4212 22.8505 11.5296C22.922 11.6217 22.9936 11.7139 23.0674 11.8088C23.2517 12.1957 23.1919 12.3943 23.0625 12.7969C22.9256 13.0528 22.9256 13.0528 22.7527 13.2968C22.6859 13.3925 22.6191 13.4883 22.5503 13.587C22.4757 13.6917 22.4011 13.7964 22.3242 13.9043C22.1576 14.143 21.9912 14.3817 21.8249 14.6206C21.7318 14.7538 21.6387 14.8871 21.5427 15.0244C20.9433 15.8882 20.3557 16.76 19.7666 17.6309C19.6389 17.8195 19.5112 18.0081 19.3835 18.1967C18.6261 19.3155 17.8713 20.4359 17.1211 21.5596C17.0398 21.6812 16.9585 21.8028 16.8748 21.9281C16.8016 22.038 16.7284 22.1478 16.6531 22.261C16.5901 22.3555 16.5272 22.45 16.4623 22.5474C16.0907 23.1274 16.0934 23.6531 16.1719 24.3281C16.3518 24.8659 16.6088 25.2298 17.0893 25.5464C17.7325 25.7937 18.2998 25.8015 18.9833 25.8063C19.1163 25.8089 19.2493 25.8114 19.3864 25.814C19.809 25.8216 20.2316 25.8264 20.6543 25.8311C20.9418 25.8357 21.2293 25.8406 21.5167 25.8456C22.2195 25.8575 22.9222 25.8669 23.625 25.875C23.4245 27.7958 23.1788 29.7094 22.9174 31.6227C22.8508 32.1119 22.7855 32.6012 22.7203 33.0905C22.6777 33.4036 22.635 33.7166 22.5923 34.0296C22.5731 34.1749 22.5539 34.3202 22.5341 34.4699C22.5059 34.673 22.5059 34.673 22.4772 34.8801C22.4612 34.9983 22.4452 35.1165 22.4287 35.2383C22.2548 36.091 21.8702 36.5234 21.2256 37.0811C20.1935 38.0024 19.2811 38.9931 18.4219 40.0781C18.3294 40.0611 18.237 40.044 18.1417 40.0265C17.6734 39.944 17.2044 39.8691 16.7344 39.7969C16.5954 39.7755 16.5954 39.7755 16.4536 39.7537C13.278 39.284 10.2139 39.6332 7.17188 40.6406C7.25374 39.3067 7.44403 37.997 7.64848 36.6778C7.7065 36.3024 7.76349 35.9268 7.82018 35.5511C7.98119 34.4843 8.14267 33.4175 8.30796 32.3513C8.4095 31.6959 8.50878 31.0402 8.6066 30.3842C8.64406 30.1359 8.68236 29.8877 8.72152 29.6397C8.77623 29.2925 8.82805 28.945 8.87925 28.5973C8.89582 28.4967 8.91239 28.3961 8.92946 28.2924C9.03387 27.5534 8.99022 26.8586 8.71875 26.1562C8.40099 25.7824 8.03345 25.5324 7.59375 25.3125C7.22478 25.2905 6.85895 25.2762 6.48962 25.268C6.38078 25.2651 6.27193 25.2622 6.15978 25.2591C5.81161 25.2499 5.46343 25.2417 5.11523 25.2334C4.87939 25.2273 4.64355 25.2212 4.40771 25.215C3.82912 25.1999 3.2505 25.1857 2.67188 25.1719C2.89565 24.5779 3.17015 24.1576 3.56836 23.6602C4.12465 22.9545 4.65371 22.2348 5.16797 21.498C5.78282 20.6187 6.41034 19.7501 7.04883 18.8877C7.67125 18.0468 8.28833 17.2029 8.89443 16.3502C9.36308 15.6909 9.83569 15.0345 10.3096 14.3789C10.3866 14.2723 10.4637 14.1657 10.5431 14.0559C10.7003 13.8384 10.8575 13.621 11.0147 13.4036C11.3221 12.9784 11.6293 12.5531 11.9364 12.1277C12.0885 11.9171 12.2406 11.7065 12.3928 11.4959C12.7723 10.9706 13.1516 10.445 13.5302 9.91901C14.4182 8.68628 15.3128 7.4589 16.2185 6.23917C16.5575 5.78146 16.8902 5.32604 17.1953 4.84497C17.2752 4.73113 17.3551 4.61729 17.4375 4.5Z" fill="white"/>
<path d="M54.2812 4.5C54.3741 4.5 54.4669 4.5 54.5625 4.5C54.7771 4.77075 54.9739 5.04165 55.1689 5.32617C55.2963 5.50825 55.4237 5.69025 55.5513 5.87219C55.6191 5.9694 55.6869 6.06661 55.7567 6.16676C56.118 6.68137 56.4875 7.19005 56.8564 7.69922C57.0127 7.91527 57.1688 8.13134 57.325 8.34741C57.4421 8.50934 57.4421 8.50934 57.5616 8.67453C57.9449 9.20474 58.3279 9.73519 58.7109 10.2656C58.8633 10.4766 59.0156 10.6875 59.168 10.8984C60.082 12.1641 60.082 12.1641 60.3105 12.4804C60.463 12.6915 60.6154 12.9026 60.7679 13.1136C61.1474 13.6389 61.5266 14.1644 61.9052 14.6904C62.6947 15.7864 63.4892 16.8785 64.292 17.9648C64.9678 18.8795 65.6353 19.7994 66.2943 20.7263C66.7286 21.337 67.1669 21.945 67.6055 22.5527C67.6802 22.6564 67.7549 22.7601 67.8318 22.867C68.2693 23.4729 68.7147 24.0705 69.1745 24.6597C69.3281 24.8906 69.3281 24.8906 69.3281 25.1719C69.1834 25.1732 69.0388 25.1745 68.8897 25.1759C68.3503 25.1815 67.811 25.1907 67.2716 25.2011C67.0387 25.205 66.8057 25.208 66.5728 25.21C66.2368 25.213 65.9012 25.2196 65.5653 25.2268C65.4104 25.2271 65.4104 25.2271 65.2523 25.2273C64.4045 25.2512 63.9074 25.542 63.3076 26.1211C62.8631 26.9633 63.0082 27.9129 63.1519 28.815C63.1697 28.9348 63.1875 29.0545 63.2058 29.1779C63.2645 29.5704 63.3254 29.9625 63.3862 30.3547C63.4275 30.6288 63.4687 30.903 63.5097 31.1772C63.6178 31.8967 63.7276 32.6161 63.8378 33.3353C64.0141 34.4879 64.188 35.6409 64.3616 36.7938C64.4225 37.196 64.4841 37.5979 64.5458 37.9999C64.5832 38.2465 64.6207 38.493 64.6581 38.7395C64.6754 38.851 64.6927 38.9624 64.7105 39.0772C64.7897 39.6027 64.8486 40.1089 64.8281 40.6406C64.7456 40.6165 64.6631 40.5925 64.5781 40.5676C61.1738 39.5887 57.9036 39.179 54.4274 40.0045C54.0059 40.0771 53.8297 40.0786 53.4375 39.9375C53.151 39.6359 52.8895 39.3371 52.6289 39.0146C52.4787 38.8342 52.3282 38.654 52.1774 38.4741C52.1044 38.3869 52.0314 38.2997 51.9561 38.2099C51.4122 37.5736 50.8417 36.9905 50.1504 36.5186C49.7508 36.1095 49.7203 36.0025 49.6347 35.4633C49.6122 35.3247 49.5897 35.1862 49.5666 35.0434C49.5446 34.895 49.5226 34.7466 49.5 34.5938C49.4667 34.3712 49.4667 34.3712 49.4326 34.1442C49.3615 33.6559 49.2936 33.1672 49.2264 32.6783C49.2019 32.5008 49.1773 32.3233 49.152 32.1404C49.1005 31.768 49.0492 31.3956 48.9981 31.0232C48.9327 30.5467 48.8667 30.0703 48.8005 29.5939C48.737 29.1367 48.6741 28.6795 48.6112 28.2222C48.5875 28.0516 48.5638 27.8809 48.5393 27.7051C48.5177 27.5468 48.4961 27.3886 48.4738 27.2255C48.4547 27.0865 48.4355 26.9476 48.4158 26.8044C48.375 26.4375 48.375 26.4375 48.375 25.875C48.553 25.8737 48.731 25.8724 48.9145 25.871C49.5778 25.8654 50.2411 25.8561 50.9044 25.8458C51.191 25.8419 51.4775 25.8389 51.7641 25.8369C52.1771 25.8339 52.59 25.8273 53.003 25.8201C53.1302 25.8199 53.2574 25.8197 53.3884 25.8195C54.2228 25.8004 54.7226 25.6588 55.4062 25.1719C55.8838 24.5095 55.9304 23.8531 55.8281 23.0625C55.6732 22.6648 55.4551 22.3315 55.2129 21.9814C55.1171 21.8359 55.1171 21.8359 55.0194 21.6874C54.557 20.9912 54.0721 20.3102 53.581 19.634C52.8868 18.6759 52.2378 17.688 51.5858 16.7009C51.2537 16.199 50.9177 15.7002 50.5766 15.2045C50.4171 14.9726 50.2585 14.7401 50.0999 14.5077C49.8962 14.2092 49.6911 13.9117 49.4846 13.6152C49.3927 13.4798 49.3008 13.3445 49.2061 13.205C49.1236 13.0854 49.0412 12.9657 48.9562 12.8424C48.7969 12.5156 48.7969 12.5156 48.8198 12.2238C48.9482 11.9285 49.0956 11.6926 49.2869 11.4335C49.3595 11.3341 49.4321 11.2348 49.5069 11.1324C49.5858 11.0262 49.6648 10.92 49.7461 10.8105C49.9137 10.5819 50.0812 10.3532 50.2487 10.1245C50.3347 10.0077 50.4207 9.89092 50.5093 9.77062C50.9054 9.23174 51.297 8.68967 51.6885 8.14746C51.763 8.04468 51.8375 7.9419 51.9143 7.836C52.3062 7.29431 52.6931 6.74973 53.0739 6.20013C53.1898 6.03333 53.1898 6.03333 53.3081 5.86316C53.4561 5.64975 53.6033 5.43579 53.7495 5.22122C53.9198 4.97585 54.0997 4.73713 54.2812 4.5Z" fill="white"/>
<path d="M16.0315 43.8751C15.9764 44.0404 15.9213 44.2057 15.8645 44.376C15.8261 44.4924 15.7876 44.6088 15.748 44.7287C15.6496 45.0218 15.5482 45.314 15.4448 45.6054C13.4973 51.1954 13.6209 57.2092 16.1791 62.584C17.3541 65.0059 18.9112 67.015 20.6721 69.0469C16.9224 71.0301 13.3032 71.5542 9.20486 70.3456C7.61719 69.8411 6.17736 69.0171 4.92212 67.9219C4.80519 67.8219 4.68827 67.7218 4.56781 67.6187C2.02444 65.3918 0.210383 62.3156 -0.0317572 58.8913C-0.221457 54.6237 0.773017 51.0523 3.65649 47.8126C4.01224 47.4568 4.38638 47.1393 4.78149 46.8282C4.89225 46.7388 5.00301 46.6494 5.11712 46.5574C8.15914 44.2156 12.2241 43.0684 16.0315 43.8751Z" fill="white"/>
<path d="M66.4557 46.2427C69.415 48.5191 71.5024 51.6726 72 55.4064C72.0405 56.031 72.047 56.6527 72.0439 57.2785C72.0432 57.4464 72.0424 57.6143 72.0415 57.7873C72.0252 58.9732 71.9469 60.0379 71.5781 61.172C71.5509 61.259 71.5237 61.3459 71.4957 61.4354C70.7472 63.785 69.5291 65.6339 67.7812 67.3595C67.6964 67.4442 67.6116 67.5288 67.5242 67.6161C64.8206 70.108 61.1444 71.1182 57.5478 71.0289C55.267 70.9335 53.3118 70.0962 51.3281 69.047C51.4354 68.9223 51.5428 68.7976 51.6533 68.6691C51.7305 68.5781 51.8078 68.4871 51.8873 68.3933C52.0945 68.1526 52.3052 67.915 52.5179 67.6792C56.3214 63.4126 58.1889 57.6307 57.9023 51.9523C57.7281 49.3594 57.1051 46.7754 56.0621 44.3926C55.9688 44.1564 55.9688 44.1564 55.9688 43.8752C59.5909 43.1177 63.4813 44.1213 66.4557 46.2427Z" fill="white"/>
</g>
<defs>
<clipPath id="clip0_324_3616">
<rect width="72" height="72" fill="white"/>
</clipPath>
</defs>
</svg>
