<svg width="12" height="15" viewBox="0 0 12 15" fill="none" xmlns="http://www.w3.org/2000/svg">
<path d="M6.24945 0.625C6.24945 0.45924 6.1836 0.300268 6.06639 0.183058C5.94918 0.0658479 5.79021 0 5.62445 0C5.45869 0 5.29972 0.0658479 5.18251 0.183058C5.0653 0.300268 4.99945 0.45924 4.99945 0.625V8.33333H0.624451C0.500917 8.33344 0.380187 8.37016 0.277507 8.43884C0.174827 8.50752 0.0948042 8.60509 0.0475448 8.71923C0.000285277 8.83337 -0.0120909 8.95895 0.0119795 9.08011C0.0360498 9.20128 0.0954867 9.31259 0.182784 9.4L5.18278 14.4C5.29997 14.517 5.45883 14.5828 5.62445 14.5828C5.79008 14.5828 5.94893 14.517 6.06612 14.4L11.0661 9.4C11.1534 9.31259 11.2129 9.20128 11.2369 9.08011C11.261 8.95895 11.2486 8.83337 11.2014 8.71923C11.1541 8.60509 11.0741 8.50752 10.9714 8.43884C10.8687 8.37016 10.748 8.33344 10.6245 8.33333H6.24945V0.625Z" fill="white"/>
</svg>
