<svg width="23" height="38" viewBox="0 0 23 38" fill="none" xmlns="http://www.w3.org/2000/svg">
<path d="M12.5459 1.5C12.5459 0.671573 11.8743 -3.62117e-08 11.0459 0C10.2175 3.62117e-08 9.5459 0.671573 9.5459 1.5L11.0459 1.5L12.5459 1.5ZM9.98524 37.5607C10.571 38.1464 11.5208 38.1464 12.1066 37.5607L21.6525 28.0147C22.2383 27.4289 22.2383 26.4792 21.6525 25.8934C21.0667 25.3076 20.117 25.3076 19.5312 25.8934L11.0459 34.3787L2.56062 25.8934C1.97483 25.3076 1.02508 25.3076 0.439298 25.8934C-0.146489 26.4792 -0.146489 27.4289 0.439298 28.0147L9.98524 37.5607ZM11.0459 1.5L9.5459 1.5L9.5459 36.5L11.0459 36.5L12.5459 36.5L12.5459 1.5L11.0459 1.5Z" fill="#1C1F25" fill-opacity="0.64"/>
</svg>
