<svg width="40" height="40" viewBox="0 0 40 40" fill="none" xmlns="http://www.w3.org/2000/svg">
<path d="M34.9998 10.0002H28.3332V6.66683C28.3332 4.8335 26.8332 3.3335 24.9998 3.3335H14.9998C13.1665 3.3335 11.6665 4.8335 11.6665 6.66683V12.3002L3.5165 16.3835C2.96115 16.6595 2.49379 17.0849 2.16697 17.6119C1.84015 18.1389 1.66683 18.7467 1.6665 19.3668V35.0002C1.6665 35.9168 2.4165 36.6668 3.33317 36.6668H36.6665C37.5832 36.6668 38.3332 35.9168 38.3332 35.0002V13.3335C38.3332 11.5002 36.8332 10.0002 34.9998 10.0002ZM34.9998 33.3335H11.6665V19.9835L8.33317 21.6668V33.3335H4.99984V19.3668L14.0832 14.8335C14.358 14.695 14.5892 14.4831 14.751 14.2213C14.9128 13.9595 14.9989 13.6579 14.9998 13.3502V6.6835H24.9998V11.6835C24.9998 12.6002 25.7498 13.3502 26.6665 13.3502H34.9998V33.3502V33.3335Z" fill="#68D585"/>
<path d="M18.3335 16.6667H21.6668V20H18.3335V16.6667ZM18.3335 23.3333H21.6668V26.6667H18.3335V23.3333ZM18.3335 10H21.6668V13.3333H18.3335V10ZM28.3335 23.3333H31.6668V26.6667H28.3335V23.3333ZM28.3335 16.6667H31.6668V20H28.3335V16.6667Z" fill="#68D585"/>
</svg>
