<svg width="37" height="37" viewBox="0 0 37 37" fill="none" xmlns="http://www.w3.org/2000/svg">
<path d="M18.1667 34.8333C27.3714 34.8333 34.8333 27.3714 34.8333 18.1666C34.8333 8.96188 27.3714 1.5 18.1667 1.5C8.96192 1.5 1.5 8.96188 1.5 18.1666C1.5 27.3714 8.96192 34.8333 18.1667 34.8333Z" stroke="#68D585" stroke-width="3"/>
<path d="M3.1665 23.9877C5.35977 24.8672 6.93867 24.8672 7.90309 23.9877C9.34975 22.6685 8.10142 18.6645 10.1275 17.5603C12.1535 16.456 15.2403 21.3509 18.1255 19.7403C21.0106 18.1296 17.8537 13.835 19.8558 12.0939C21.858 10.3528 24.4615 12.3164 24.9166 9.40513C25.3717 6.49391 22.7933 7.75655 22.2985 5.00549C21.9686 3.17147 21.9686 2.20708 22.2985 2.1123" stroke="#68D585" stroke-width="3" stroke-linecap="round"/>
<path d="M22.3507 34.2917C20.7889 32.6934 20.2267 31.2077 20.664 29.8346C21.32 27.7749 22.4021 27.8966 22.8739 26.6231C23.3457 25.3496 22.0129 23.5357 24.9702 21.9851C26.9417 20.9514 29.6524 22.1491 33.1023 25.5783" stroke="#68D585" stroke-width="3" stroke-linecap="round"/>
</svg>
