<svg width="40" height="40" viewBox="0 0 40 40" fill="none" xmlns="http://www.w3.org/2000/svg">
<path d="M4.4913 3.72949L33.2749 32.5131C33.821 33.0593 34.1279 33.8001 34.1279 34.5725C34.1279 35.3449 33.821 36.0856 33.2749 36.6318C32.7286 37.1778 31.9879 37.4845 31.2155 37.4845C30.4432 37.4845 29.7024 37.1778 29.1561 36.6318L22.1249 29.4795C21.6647 29.0123 21.4066 28.3829 21.4061 27.7271V27.2951C21.4062 26.964 21.3405 26.6362 21.2128 26.3307C21.0851 26.0251 20.898 25.748 20.6624 25.5154L19.7546 24.6771C19.4464 24.3928 19.0716 24.1905 18.6648 24.0889C18.258 23.9874 17.8321 23.9898 17.4265 24.0959C16.7867 24.2629 16.1145 24.2596 15.4764 24.0865C14.8383 23.9135 14.2566 23.5765 13.789 23.1092L7.11473 16.4342C3.15536 12.4748 1.69833 6.4959 4.4913 3.72949Z" stroke="#68D585" stroke-width="2.5" stroke-linejoin="round"/>
<path d="M31.2498 2.5L25.2147 8.53516C24.7503 8.99947 24.3819 9.55071 24.1305 10.1574C23.8792 10.7641 23.7498 11.4144 23.7498 12.0711V13.232C23.7498 13.3963 23.7175 13.5589 23.6546 13.7107C23.5918 13.8624 23.4996 14.0003 23.3834 14.1164L22.4998 15M24.9998 17.5L25.8834 16.6164C25.9995 16.5002 26.1374 16.4081 26.2891 16.3452C26.4409 16.2823 26.6035 16.25 26.7678 16.25H27.9287C28.5854 16.25 29.2357 16.1206 29.8424 15.8693C30.4491 15.618 31.0004 15.2496 31.4647 14.7852L37.4998 8.75M34.3748 5.625L28.1248 11.875M15.6248 28.75L7.8342 36.5844C7.24817 37.1702 6.45346 37.4993 5.62482 37.4993C4.79618 37.4993 4.00147 37.1702 3.41545 36.5844C2.8296 35.9984 2.50049 35.2036 2.50049 34.375C2.50049 33.5464 2.8296 32.7516 3.41545 32.1656L9.99982 25.625" stroke="#68D585" stroke-width="2.5" stroke-linecap="round" stroke-linejoin="round"/>
</svg>
