<svg width="32" height="32" viewBox="0 0 32 32" fill="none" xmlns="http://www.w3.org/2000/svg">
<path d="M29.3334 5.66675C29.3334 4.8711 29.0174 4.10804 28.4548 3.54543C27.8922 2.98282 27.1291 2.66675 26.3334 2.66675H19.0454C18.4761 2.66678 17.9123 2.77902 17.3863 2.99705C16.8604 3.21508 16.3825 3.53462 15.9801 3.93741L4.64678 15.2841C3.83491 16.0974 3.37937 17.2 3.38037 18.3492C3.38137 19.4984 3.83883 20.6001 4.65211 21.4121L10.6014 27.3521C11.4151 28.1629 12.5171 28.618 13.6657 28.6177C14.8144 28.6175 15.9161 28.1619 16.7294 27.3507L16.8548 27.2254C16.1662 26.5462 15.6189 25.7375 15.2441 24.8459C14.8694 23.9543 14.6748 22.9973 14.6714 22.0302C14.6681 21.063 14.856 20.1048 15.2245 19.2106C15.593 18.3164 16.1348 17.5039 16.8186 16.8199C17.5024 16.1359 18.3147 15.594 19.2088 15.2252C20.103 14.8565 21.0612 14.6683 22.0283 14.6714C22.9955 14.6745 23.9525 14.8689 24.8442 15.2434C25.7359 15.6179 26.5447 16.165 27.2241 16.8534L28.0641 16.0134C28.8768 15.2008 29.3334 14.0987 29.3334 12.9494V5.66675ZM20.6668 9.33608C20.6668 8.80565 20.8775 8.29694 21.2526 7.92187C21.6276 7.54679 22.1363 7.33608 22.6668 7.33608C23.1972 7.33608 23.7059 7.54679 24.081 7.92187C24.4561 8.29694 24.6668 8.80565 24.6668 9.33608C24.6668 9.86651 24.4561 10.3752 24.081 10.7503C23.7059 11.1254 23.1972 11.3361 22.6668 11.3361C22.1363 11.3361 21.6276 11.1254 21.2526 10.7503C20.8775 10.3752 20.6668 9.86651 20.6668 9.33608ZM26.8908 25.4761C27.7626 24.2499 28.1419 22.741 27.9535 21.2483C27.7652 19.7556 27.023 18.3882 25.874 17.417C24.7249 16.4458 23.253 15.9417 21.7498 16.0046C20.2466 16.0675 18.8219 16.6929 17.7581 17.7567C16.6943 18.8206 16.0689 20.2453 16.006 21.7484C15.9431 23.2516 16.4472 24.7236 17.4184 25.8726C18.3896 27.0216 19.757 27.7638 21.2497 27.9522C22.7423 28.1405 24.2513 27.7612 25.4774 26.8894L28.9601 30.3734C29.0517 30.4717 29.1621 30.5505 29.2847 30.6051C29.4074 30.6598 29.5398 30.6892 29.6741 30.6915C29.8084 30.6939 29.9417 30.6692 30.0662 30.6189C30.1908 30.5686 30.3039 30.4938 30.3988 30.3988C30.4938 30.3038 30.5687 30.1907 30.6189 30.0662C30.6692 29.9417 30.6939 29.8083 30.6916 29.674C30.6892 29.5398 30.6598 29.4074 30.6052 29.2847C30.5505 29.162 30.4717 29.0516 30.3734 28.9601L26.8908 25.4761ZM26.0001 22.0001C26.0001 23.0609 25.5787 24.0784 24.8285 24.8285C24.0784 25.5787 23.061 26.0001 22.0001 26.0001C20.9392 26.0001 19.9218 25.5787 19.1717 24.8285C18.4215 24.0784 18.0001 23.0609 18.0001 22.0001C18.0001 20.9392 18.4215 19.9218 19.1717 19.1717C19.9218 18.4215 20.9392 18.0001 22.0001 18.0001C23.061 18.0001 24.0784 18.4215 24.8285 19.1717C25.5787 19.9218 26.0001 20.9392 26.0001 22.0001Z" fill="#1F6F5C"/>
</svg>
