<svg width="32" height="32" viewBox="0 0 32 32" fill="none" xmlns="http://www.w3.org/2000/svg">
<path opacity="0.5" fill-rule="evenodd" clip-rule="evenodd" d="M17.16 9.33325C17.5136 9.33325 17.8528 9.47373 18.1028 9.72378C18.3529 9.97383 18.4933 10.313 18.4933 10.6666V15.4479L20.7693 17.7239C21.0122 17.9754 21.1466 18.3122 21.1436 18.6618C21.1405 19.0114 21.0003 19.3458 20.7531 19.593C20.5059 19.8402 20.1715 19.9804 19.8219 19.9835C19.4723 19.9865 19.1355 19.8521 18.884 19.6093L16.2173 16.9426C15.9673 16.6926 15.8267 16.3535 15.8267 15.9999V10.6666C15.8267 10.313 15.9671 9.97383 16.2172 9.72378C16.4672 9.47373 16.8064 9.33325 17.16 9.33325Z" fill="#1F6F5C"/>
<path d="M8.83597 11.7747C9.73305 10.0067 11.1698 8.57039 12.9379 7.67377C14.7061 6.77715 16.7138 6.46683 18.6702 6.7878C20.6265 7.10877 22.4298 8.04434 23.8188 9.45894C25.2078 10.8735 26.1102 12.6937 26.3954 14.6556C26.6805 16.6174 26.3336 18.6192 25.4048 20.3706C24.476 22.1221 23.0136 23.5323 21.2296 24.3969C19.4456 25.2616 17.4326 25.5356 15.4823 25.1795C13.5321 24.8233 11.7459 23.8554 10.3826 22.416C10.1393 22.1593 9.80403 22.0097 9.45046 22.0002C9.09689 21.9907 8.75403 22.122 8.4973 22.3653C8.24057 22.6086 8.09101 22.9439 8.0815 23.2975C8.072 23.6511 8.20334 23.9939 8.44664 24.2507C10.2241 26.1271 12.5599 27.3795 15.1064 27.8215C17.653 28.2635 20.2742 27.8715 22.58 26.7038C24.8859 25.5361 26.753 23.6552 27.9037 21.3408C29.0544 19.0265 29.4272 16.4024 28.9664 13.8592C28.5057 11.3159 27.2361 8.98943 25.3467 7.22584C23.4572 5.46225 21.0488 4.35585 18.4799 4.07127C15.911 3.78668 13.3188 4.33914 11.0892 5.64642C8.8595 6.9537 7.11151 8.94593 6.1053 11.3267L5.31464 9.95866C5.13657 9.65492 4.84559 9.43394 4.50519 9.34395C4.1648 9.25395 3.80263 9.30225 3.49771 9.4783C3.19279 9.65435 2.96989 9.94385 2.87764 10.2836C2.78539 10.6234 2.83128 10.9859 3.0053 11.292L5.33864 15.3333C5.51545 15.6396 5.80667 15.863 6.14824 15.9545C6.4898 16.046 6.85373 15.9981 7.15997 15.8213L11.2013 13.488C11.505 13.3099 11.726 13.0189 11.816 12.6786C11.906 12.3382 11.8577 11.976 11.6817 11.6711C11.5056 11.3662 11.2161 11.1432 10.8763 11.051C10.5365 10.9587 10.174 11.0046 9.86797 11.1787L8.83597 11.7747Z" fill="#1F6F5C"/>
</svg>
