<svg width="32" height="32" viewBox="0 0 32 32" fill="none" xmlns="http://www.w3.org/2000/svg">
<g clip-path="url(#clip0_324_3344)">
<path fill-rule="evenodd" clip-rule="evenodd" d="M5.3335 9.06675V10.6667H3.7335C3.09698 10.6667 2.48653 10.9196 2.03644 11.3697C1.58635 11.8198 1.3335 12.4302 1.3335 13.0667V24.2668C1.3335 24.9033 1.58635 25.5137 2.03644 25.9638C2.48653 26.4139 3.09698 26.6667 3.7335 26.6667H25.6002C25.9153 26.6667 26.2274 26.6047 26.5186 26.4841C26.8098 26.3634 27.0744 26.1867 27.2972 25.9638C27.5201 25.7409 27.6969 25.4764 27.8175 25.1852C27.9381 24.894 28.0002 24.5819 28.0002 24.2668V22.6667H29.6002C30.9228 22.6667 32.0002 21.5894 32.0002 20.2667V9.06675C32.0002 7.74408 30.9228 6.66675 29.6002 6.66675H7.7335C6.41083 6.66675 5.3335 7.74408 5.3335 9.06675ZM8.00016 9.33341V10.6667H25.6002C25.9153 10.6667 26.2274 10.7288 26.5186 10.8494C26.8098 10.97 27.0744 11.1468 27.2972 11.3697C27.5201 11.5926 27.6969 11.8571 27.8175 12.1483C27.9381 12.4395 28.0002 12.7516 28.0002 13.0667V20.0001H29.3335V9.33341H8.00016ZM12.0002 18.6667C12.0002 17.9595 12.2811 17.2812 12.7812 16.7811C13.2813 16.281 13.9596 16.0001 14.6668 16.0001C15.3741 16.0001 16.0524 16.281 16.5524 16.7811C17.0525 17.2812 17.3335 17.9595 17.3335 18.6667C17.3335 19.374 17.0525 20.0523 16.5524 20.5524C16.0524 21.0525 15.3741 21.3334 14.6668 21.3334C13.9596 21.3334 13.2813 21.0525 12.7812 20.5524C12.2811 20.0523 12.0002 19.374 12.0002 18.6667Z" fill="#1F6F5C"/>
</g>
<defs>
<clipPath id="clip0_324_3344">
<rect width="32" height="32" fill="white"/>
</clipPath>
</defs>
</svg>
