<svg width="14" height="7" viewBox="0 0 14 7" fill="none" xmlns="http://www.w3.org/2000/svg">
<path d="M14.0013 1.16123C14.0018 1.31063 13.9688 1.45824 13.9048 1.59321C13.8407 1.72819 13.7473 1.84711 13.6313 1.94123L7.63125 6.77123C7.45232 6.91831 7.22788 6.99872 6.99625 6.99872C6.76463 6.99872 6.54018 6.91831 6.36125 6.77123L0.361252 1.77123C0.157036 1.60149 0.0286113 1.35758 0.00423157 1.09315C-0.0201482 0.828728 0.0615138 0.565447 0.231252 0.36123C0.400991 0.157014 0.644902 0.0285897 0.909329 0.00421001C1.17375 -0.0201697 1.43704 0.0614915 1.64125 0.23123L7.00125 4.70123L12.3613 0.381231C12.508 0.258948 12.6868 0.181271 12.8763 0.157391C13.0659 0.133512 13.2583 0.164428 13.4308 0.246484C13.6034 0.32854 13.7488 0.4583 13.8499 0.620411C13.9509 0.782521 14.0035 0.970197 14.0013 1.16123Z" fill="#1F6F5C"/>
</svg>
