<svg width="58" height="58" viewBox="0 0 58 58" fill="none" xmlns="http://www.w3.org/2000/svg">
<path d="M40.6005 26.5834H17.4609L16.7963 31.4167H41.2047L40.6005 26.5834ZM10.0297 45.6146L12.6276 26.5834H7.2505C6.44495 26.5834 5.81097 26.2611 5.34859 25.6167C4.8862 24.9722 4.75489 24.2674 4.95467 23.5021L8.39842 11.4188C8.55953 10.8952 8.84147 10.4722 9.24425 10.15C9.64703 9.8278 10.1304 9.66669 10.6943 9.66669H47.3068C47.8706 9.66669 48.354 9.8278 48.7567 10.15C49.1595 10.4722 49.4415 10.8952 49.6026 11.4188L53.0463 23.5021C53.2477 24.2674 53.1172 24.9722 52.6548 25.6167C52.1924 26.2611 51.5577 26.5834 50.7505 26.5834H45.4338L47.9713 45.6146C48.0519 46.3396 47.8602 46.9744 47.3962 47.5189C46.9322 48.0635 46.3385 48.335 45.6151 48.3334C45.0109 48.3334 44.4768 48.1416 44.0128 47.7582C43.5488 47.3747 43.2774 46.8817 43.1984 46.2792L41.8693 36.25H16.1318L14.8026 46.2792C14.722 46.8834 14.4506 47.3772 13.9882 47.7606C13.5258 48.1441 12.9917 48.335 12.3859 48.3334C11.6609 48.3334 11.0672 48.0619 10.6048 47.5189C10.1424 46.976 9.95072 46.3412 10.0297 45.6146Z" fill="#1C1F25"/>
</svg>
